HIERARCHY
ROOT Hips
{
	OFFSET 0.000000 0.000000 0.000000
	CHANNELS 6 Xposition Yposition Zposition Zrotation Yrotation Xrotation 
	JOINT LHipJoint
	{
		OFFSET 0.000000 0.000000 0.000000
		CHANNELS 3 Zrotation Yrotation Xrotation
		JOINT LeftUpLeg
		{
			OFFSET 1.363060 -1.794630 0.839290
			CHANNELS 3 Zrotation Yrotation Xrotation
			JOINT LeftLeg
			{
				OFFSET 2.448110 -6.726130 0.000000
				CHANNELS 3 Zrotation Yrotation Xrotation
				JOINT LeftFoot
				{
					OFFSET 2.562200 -7.039590 0.000000
					CHANNELS 3 Zrotation Yrotation Xrotation
					JOINT LeftToeBase
					{
						OFFSET 0.157640 -0.433110 2.322550
						CHANNELS 3 Zrotation Yrotation Xrotation
						End Site
						{
							OFFSET 0.000000 0.000000 0.000000
						}
					}
				}
			}
		}
	}
	JOINT RHipJoint
	{
		OFFSET 0.000000 0.000000 0.000000
		CHANNELS 3 Zrotation Yrotation Xrotation
		JOINT RightUpLeg
		{
			OFFSET -1.305520 -1.794630 0.839290
			CHANNELS 3 Zrotation Yrotation Xrotation
			JOINT RightLeg
			{
				OFFSET -2.542530 -6.985550 0.000000
				CHANNELS 3 Zrotation Yrotation Xrotation
				JOINT RightFoot
				{
					OFFSET -2.568260 -7.056230 0.000000
					CHANNELS 3 Zrotation Yrotation Xrotation
					JOINT RightToeBase
					{
						OFFSET -0.164730 -0.452590 2.363150
						CHANNELS 3 Zrotation Yrotation Xrotation
						End Site
						{
							OFFSET 0.000000 0.000000 0.000000
						}
					}
				}
			}
		}
	}
	JOINT LowerBack
	{
		OFFSET 0.000000 0.000000 0.000000
		CHANNELS 3 Zrotation Yrotation Xrotation
		JOINT Spine
		{
			OFFSET 0.028270 2.035590 -0.193380
			CHANNELS 3 Zrotation Yrotation Xrotation
			JOINT Spine1
			{
				OFFSET 0.056720 2.048850 -0.042750
				CHANNELS 3 Zrotation Yrotation Xrotation
				JOINT Neck
				{
					OFFSET 0.000000 0.000000 0.000000
					CHANNELS 3 Zrotation Yrotation Xrotation
					JOINT Neck1
					{
						OFFSET -0.054170 1.746240 0.172020
						CHANNELS 3 Zrotation Yrotation Xrotation
						JOINT Head
						{
							OFFSET 0.104070 1.761360 -0.123970
							CHANNELS 3 Zrotation Yrotation Xrotation
							End Site
							{
								OFFSET 0.000000 0.000000 0.000000
							}
						}
					}
				}
				JOINT LeftShoulder
				{
					OFFSET 0.000000 0.000000 0.000000
					CHANNELS 3 Zrotation Yrotation Xrotation
					JOINT LeftArm
					{
						OFFSET 3.362410 1.200890 -0.311210
						CHANNELS 3 Zrotation Yrotation Xrotation
						JOINT LeftForeArm
						{
							OFFSET 4.983000 -0.000000 -0.000000
							CHANNELS 3 Zrotation Yrotation Xrotation
							JOINT LeftHand
							{
								OFFSET 3.483560 -0.000000 -0.000000
								CHANNELS 3 Zrotation Yrotation Xrotation
								JOINT LeftFingerBase
								{
									OFFSET 0.000000 0.000000 0.000000
									CHANNELS 3 Zrotation Yrotation Xrotation
									JOINT LeftHandIndex1
									{
										OFFSET 0.715260 -0.000000 -0.000000
										CHANNELS 3 Zrotation Yrotation Xrotation
										End Site
										{
											OFFSET 0.000000 0.000000 0.000000
										}
									}
								}
								JOINT LThumb
								{
									OFFSET 0.000000 0.000000 0.000000
									CHANNELS 3 Zrotation Yrotation Xrotation
									End Site
									{
										OFFSET 0.000000 0.000000 0.000000
									}
								}
							}
						}
					}
				}
				JOINT RightShoulder
				{
					OFFSET 0.000000 0.000000 0.000000
					CHANNELS 3 Zrotation Yrotation Xrotation
					JOINT RightArm
					{
						OFFSET -3.136600 1.374050 -0.404650
						CHANNELS 3 Zrotation Yrotation Xrotation
						JOINT RightForeArm
						{
							OFFSET -5.241900 -0.000000 -0.000000
							CHANNELS 3 Zrotation Yrotation Xrotation
							JOINT RightHand
							{
								OFFSET -3.444170 -0.000000 -0.000000
								CHANNELS 3 Zrotation Yrotation Xrotation
								JOINT RightFingerBase
								{
									OFFSET 0.000000 0.000000 0.000000
									CHANNELS 3 Zrotation Yrotation Xrotation
									JOINT RightHandIndex1
									{
										OFFSET -0.622530 -0.000000 -0.000000
										CHANNELS 3 Zrotation Yrotation Xrotation
										End Site
										{
											OFFSET 0.000000 0.000000 0.000000
										}
									}
								}
								JOINT RThumb
								{
									OFFSET 0.000000 0.000000 0.000000
									CHANNELS 3 Zrotation Yrotation Xrotation
									End Site
									{
										OFFSET 0.000000 0.000000 0.000000
									}
								}
							}
						}
					}
				}
			}
		}
	}
}
MOTION
Frames: 11
Frame Time: 0.008333
-13.720839 16.690657 0.309508 -0.502505 79.416816 20.905806 -8.848150 -0.487856 -0.070523 -16.684040 1.019483 -47.703033 -2.899137 0.536232 19.683314 0.864801 5.220529 2.160872 1.423500 0.000000 -11.523500 10.418499 -2.667014 -2.560744 6.305411 -4.457920 -5.464717 2.440020 -2.106041 28.076507 1.453960 16.480505 -0.191662 1.556800 0.000000 -70.691800 -7.387584 1.660933 3.752455 -2.926005 1.977901 -2.552316 -8.545949 1.832361 0.034645 11.871011 8.461168 5.143417 -5.602560 -0.478103 2.885133 0.000000 0.000000 0.000000 -6.022547 0.740862 1.815717 -58.789406 -3.317455 12.102729 -3.823777 -17.895817 -0.002435 2.449619 2.602490 0.057929 -0.076534 -0.013687 0.000000 0.000000 0.000000 0.000000 0.000000 0.000000 0.000000 25.759322 7.523562 -0.676817 73.665628 15.889881 11.074182 2.457535 24.290112 0.004863 4.073700 8.917118 0.323368 -0.019205 -0.104193 -0.000000 0.000000 0.000000 0.000000 0.000000 0.000000 0.000000 
-13.574740 16.710650 0.316989 1.469607 79.293809 22.841454 -8.753422 -0.458204 -0.096032 -16.917623 0.570933 -47.297111 -2.836618 0.558957 20.522497 0.980819 5.817469 1.469963 1.460100 -0.000000 -11.862900 10.679278 -2.678113 -2.606354 5.462172 -4.724016 -6.604477 2.171110 -2.387383 30.493037 1.410158 16.854198 1.645142 2.106600 0.000001 -72.970800 -7.911729 1.562834 3.797980 -3.029402 1.900918 -2.538206 -8.533585 1.755311 0.028575 11.819520 8.536328 5.203934 -5.590429 -0.477954 2.894270 0.000000 0.000000 0.000000 -5.863493 0.465533 1.829887 -58.833270 -3.351626 11.969963 -3.869355 -16.875896 -0.002952 2.303598 2.879160 0.060316 -0.076374 -0.011320 0.000000 0.000000 0.000000 0.000000 0.000000 0.000000 0.000000 25.647229 7.485929 -0.677495 74.161191 15.465247 8.876577 2.467755 22.701482 0.004606 3.686674 8.864340 0.290571 -0.014654 -0.099636 -0.000000 0.000000 0.000000 0.000000 0.000000 0.000000 0.000000 
-13.432493 16.733513 0.319909 3.061134 79.159627 24.403114 -8.656987 -0.430603 -0.122843 -17.118073 0.142424 -46.794421 -2.787795 0.557788 21.170470 1.100000 6.382437 0.621388 1.456299 -0.000000 -12.294100 10.919134 -2.665463 -2.650010 4.719507 -4.906923 -7.789114 1.883762 -2.650967 32.938462 1.340006 17.151612 3.693003 2.749500 -0.000001 -74.922400 -8.322143 1.478464 3.865084 -3.107394 1.832890 -2.519120 -8.504154 1.687680 0.021461 11.679035 8.631330 5.263335 -5.566151 -0.477028 2.904415 0.000000 0.000000 0.000000 -5.766451 0.190383 1.847687 -58.911294 -3.490159 11.837098 -3.912453 -15.850655 -0.003508 2.126128 3.164361 0.061206 -0.076367 -0.008019 0.000000 0.000000 0.000000 0.000000 0.000000 0.000000 0.000000 25.391115 7.479355 -0.674272 74.626966 15.041178 6.624081 2.470369 21.212897 0.004382 3.167069 8.812721 0.247775 -0.009078 -0.095819 -0.000000 0.000000 0.000000 0.000000 0.000000 0.000000 0.000000 
-13.293940 16.758561 0.318378 4.314479 79.008262 25.627002 -8.564888 -0.404279 -0.156543 -17.297753 -0.236360 -46.193360 -2.753481 0.536189 21.615608 1.217709 6.904008 -0.302720 1.417200 0.000001 -12.743200 11.136223 -2.628562 -2.690672 4.066681 -5.011612 -9.004083 1.584051 -2.892966 35.394217 1.243303 17.387333 5.929399 3.477600 -0.000000 -76.433800 -8.632053 1.408307 3.954616 -3.163165 1.775074 -2.493556 -8.462294 1.630979 0.020378 11.455085 8.714231 5.307992 -5.536397 -0.475605 2.911523 0.000000 0.000000 0.000000 -5.723972 -0.067558 1.865859 -59.019347 -3.743198 11.702141 -3.951992 -14.835818 -0.004072 1.928274 3.448951 0.060599 -0.076446 -0.003929 0.000000 0.000000 0.000000 0.000000 0.000000 0.000000 0.000000 25.027866 7.470448 -0.666284 75.034412 14.644468 4.493453 2.467361 19.847326 0.004212 2.532421 8.764071 0.196679 -0.002541 -0.092737 -0.000000 0.000000 0.000000 0.000000 0.000000 0.000000 0.000000 
-13.158644 16.784992 0.311939 5.118741 78.832149 26.401982 -8.491611 -0.379724 -0.201123 -17.439752 -0.511279 -45.532375 -2.731835 0.503677 21.891717 1.325344 7.342743 -1.237633 1.344900 0.000000 -13.136000 11.316309 -2.570591 -2.720404 3.539214 -5.011588 -10.225950 1.280016 -3.106288 37.826546 1.121009 17.536677 8.309256 4.264000 0.000000 -77.360300 -8.822413 1.356125 4.057501 -3.192558 1.730545 -2.467756 -8.411051 1.587318 0.011110 11.154769 8.838860 5.358154 -5.500539 -0.473809 2.921418 0.000000 0.000000 0.000000 -5.744573 -0.321126 1.889199 -59.151270 -4.061079 11.559905 -3.986049 -13.866385 -0.004599 1.726249 3.718517 0.058693 -0.076497 0.000740 0.000000 0.000000 0.000000 0.000000 0.000000 0.000000 0.000000 24.559367 7.519668 -0.650720 75.374302 14.196428 2.469042 2.462160 18.669301 0.004109 1.862878 8.698807 0.143182 0.004305 -0.090284 -0.000000 0.000000 0.000000 0.000000 0.000000 0.000000 0.000000 
-13.026181 16.812287 0.301217 5.559230 78.633442 26.809607 -8.438364 -0.356339 -0.261129 -17.560598 -0.666291 -44.816925 -2.722237 0.463360 22.005089 1.417496 7.692587 -2.112723 1.253000 -0.000001 -13.423700 11.463849 -2.493338 -2.740104 3.115653 -4.926392 -11.446863 0.980652 -3.290632 40.220836 0.975813 17.596062 10.774381 5.075200 0.000000 -77.605900 -8.916528 1.318510 4.175034 -3.201577 1.697234 -2.437115 -8.356968 1.555406 0.010895 10.789364 8.931755 5.386380 -5.468466 -0.471978 2.926003 0.000000 0.000000 0.000000 -5.813784 -0.543306 1.910287 -59.299277 -4.471565 11.421517 -4.013093 -12.955858 -0.005058 1.536962 3.963465 0.055890 -0.076410 0.005791 0.000000 0.000000 0.000000 0.000000 0.000000 0.000000 0.000000 24.042972 7.545660 -0.629605 75.624580 13.779488 0.782832 2.460364 17.641849 0.004098 1.183045 8.618637 0.089485 0.011569 -0.088246 -0.000000 0.000000 0.000000 0.000000 0.000000 0.000000 0.000000 
-12.896180 16.839885 0.286661 5.657472 78.414951 26.868523 -8.409248 -0.333387 -0.338183 -17.661388 -0.679959 -44.071243 -2.722987 0.420911 21.987782 1.488135 7.936774 -2.881962 1.152000 0.000000 -13.575100 11.577926 -2.400914 -2.747873 2.796551 -4.764498 -12.655396 0.694638 -3.445488 42.558409 0.812348 17.533274 13.242122 5.857199 0.000000 -77.097800 -8.919371 1.293089 4.302178 -3.191234 1.673176 -2.405777 -8.302745 1.532586 0.008552 10.376266 9.039320 5.410955 -5.439572 -0.470191 2.930089 0.000000 0.000000 0.000000 -5.928246 -0.742977 1.933756 -59.454079 -4.938552 11.300990 -4.032333 -12.132183 -0.005420 1.378786 4.170121 0.052990 -0.076107 0.011051 0.000000 0.000000 0.000000 0.000000 0.000000 0.000000 0.000000 23.492511 7.597028 -0.602738 75.787911 13.332254 -0.626333 2.465566 16.798984 0.004179 0.587096 8.498041 0.042986 0.018521 -0.086345 -0.000000 0.000000 0.000000 0.000000 0.000000 0.000000 0.000000 
-12.768159 16.867438 0.269119 5.502747 78.183717 26.665662 -8.401897 -0.309437 -0.432491 -17.754657 -0.553242 -43.307089 -2.733060 0.378996 21.863032 1.534375 8.074640 -3.514687 1.052900 0.000000 -13.586600 11.664595 -2.296865 -2.746097 2.562481 -4.552913 -13.847068 0.428752 -3.574267 44.828923 0.636136 17.312495 15.623463 6.547599 -0.000000 -75.855800 -8.850838 1.274989 4.437880 -3.166323 1.654498 -2.373313 -8.252035 1.515054 0.006324 9.933711 9.150722 5.429966 -5.417340 -0.468599 2.932701 0.000000 0.000000 0.000000 -6.076068 -0.917883 1.958755 -59.607179 -5.453042 11.214613 -4.043085 -11.416222 -0.005676 1.267597 4.328603 0.050793 -0.075513 0.016337 0.000000 0.000000 0.000000 0.000000 0.000000 0.000000 0.000000 22.942748 7.658294 -0.571497 75.861095 12.868247 -1.722937 2.481378 16.123523 0.004356 0.131501 8.326101 0.008187 0.024833 -0.084296 -0.000000 0.000000 0.000000 0.000000 0.000000 0.000000 0.000000 
-12.641810 16.894712 0.249501 5.193217 77.949485 26.296883 -8.411794 -0.283257 -0.542545 -17.852034 -0.300300 -42.532178 -2.751362 0.338997 21.653113 1.555977 8.113348 -3.999953 0.963800 0.000000 -13.477400 11.730860 -2.184342 -2.739233 2.391544 -4.323329 -15.020081 0.186852 -3.682317 47.024409 0.452573 16.887189 17.829763 7.078900 0.000000 -74.002400 -8.732895 1.258921 4.582433 -3.132329 1.636909 -2.337842 -8.208467 1.498822 0.010479 9.478923 9.232181 5.435214 -5.406333 -0.467378 2.931184 0.000000 0.000000 0.000000 -6.242781 -1.070205 1.982481 -59.751675 -6.007719 11.169469 -4.044796 -10.828213 -0.005823 1.216067 4.433520 0.049898 -0.074554 0.021456 0.000000 0.000000 0.000000 0.000000 0.000000 0.000000 0.000000 22.432201 7.688251 -0.537281 75.838050 12.428965 -2.445105 2.510499 15.577747 0.004629 -0.152481 8.098488 -0.012814 0.030361 -0.081819 -0.000000 0.000000 0.000000 0.000000 0.000000 0.000000 0.000000 
-12.516726 16.921578 0.228498 4.792927 77.724284 25.827832 -8.435704 -0.254155 -0.663835 -17.956002 0.057781 -41.760716 -2.776427 0.302263 21.386361 1.554584 8.060277 -4.350045 0.886900 -0.000000 -13.279700 11.780597 -2.066897 -2.731060 2.273746 -4.101998 -16.174566 -0.030538 -3.774732 49.136296 0.266207 16.200942 19.776894 7.383000 -0.000000 -71.759300 -8.578714 1.240656 4.733013 -3.092524 1.616707 -2.299748 -8.174270 1.480174 0.021333 9.029122 9.279861 5.428760 -5.407905 -0.466600 2.925904 0.000000 0.000000 0.000000 -6.420013 -1.205528 2.004873 -59.881273 -6.590280 11.174624 -4.037707 -10.383851 -0.005876 1.231304 4.481350 0.050905 -0.073221 0.026286 0.000000 0.000000 0.000000 0.000000 0.000000 0.000000 0.000000 21.984172 7.678751 -0.501242 75.717606 12.016720 -2.815171 2.553626 15.154680 0.004975 -0.232433 7.805040 -0.018116 0.034820 -0.078671 -0.000000 0.000000 0.000000 0.000000 0.000000 0.000000 0.000000 
-12.393093 16.947954 0.207244 4.441573 77.519396 25.388755 -8.464406 -0.220466 -0.793239 -18.085236 0.481605 -40.972725 -2.807635 0.266159 21.065613 1.535603 7.943599 -4.584153 0.823700 0.000000 -13.038100 11.823711 -1.945217 -2.729593 2.171149 -3.925404 -17.304947 -0.225243 -3.859179 51.162748 0.079558 15.215004 21.393915 7.410600 0.000000 -69.406300 -8.417814 1.213831 4.894524 -3.052667 1.588631 -2.260283 -8.148204 1.453514 0.028736 8.605153 9.338768 5.430089 -5.417940 -0.466147 2.921792 0.000000 0.000000 0.000000 -6.591688 -1.341041 2.030878 -59.993106 -7.177416 11.262361 -4.023371 -10.091770 -0.005854 1.320031 4.464392 0.054113 -0.071591 0.030725 0.000000 0.000000 0.000000 0.000000 0.000000 0.000000 0.000000 21.602428 7.673426 -0.463805 75.516950 11.593510 -2.978900 2.609199 14.851011 0.005356 -0.071057 7.459016 -0.006821 0.037705 -0.074789 -0.000000 0.000000 0.000000 0.000000 0.000000 0.000000 0.000000 
